<svg xmlns="http://www.w3.org/2000/svg" fill="none" viewBox="0 0 24 24" id="Compare-Alt-Fill--Streamline-Outlined-Fill-Expansion-Set" height="24" width="24"><desc>Compare Alt Fill Streamline Icon: https://streamlinehq.com</desc><g id="compare-alt-fill"><path id="Union" fill="#000000" fill-rule="evenodd" d="M0.24 2.592C0.24 1.293 1.293 0.24 2.592 0.24H10.824C12.123 0.24 13.176 1.293 13.176 2.592V4.944H21.408C22.707 4.944 23.76 5.997 23.76 7.296V13.176H18.8502L20.1144 11.8824L18.468 10.236L14.352 14.352L18.468 18.468L20.1144 16.8216L18.8502 15.528H23.76V21.408C23.76 22.707 22.707 23.76 21.408 23.76H13.176C11.877 23.76 10.824 22.707 10.824 21.408V19.056H2.592C1.293 19.056 0.24 18.003 0.24 16.704V2.592ZM10.824 2.592V16.704H2.592V10.824H5.1498L3.8856 12.1176L5.532 13.764L9.648 9.648L5.532 5.532L3.8856 7.1784L5.1498 8.472H2.592V2.592H10.824Z" clip-rule="evenodd" stroke-width="1"></path></g></svg>